<svg xmlns="http://www.w3.org/2000/svg" width="1536" height="1536" viewBox="0 0 1536 1536">
<defs>
  <linearGradient id="bg" x1="0" y1="0" x2="1" y2="1"><stop offset="0" stop-color="#061b5c"/><stop offset=".55" stop-color="#073fae"/><stop offset="1" stop-color="#0a67ef"/></linearGradient>
  <linearGradient id="cyan" x1="0" y1="1" x2="1" y2="0"><stop offset="0" stop-color="#18d9ef"/><stop offset="1" stop-color="#168dff"/></linearGradient>
  <linearGradient id="bar" x1="0" y1="1" x2="1" y2="0"><stop offset="0" stop-color="#1168ee"/><stop offset="1" stop-color="#29d8ea"/></linearGradient>
  <linearGradient id="whiteGel" x1="0" y1="0" x2="0" y2="1"><stop offset="0" stop-color="#ffffff"/><stop offset=".7" stop-color="#f7fbff"/><stop offset="1" stop-color="#bcd7ff"/></linearGradient>
  <filter id="soft" x="-30%" y="-30%" width="160%" height="160%">
    <feDropShadow dx="0" dy="18" stdDeviation="18" flood-color="#00164f" flood-opacity=".45"/>
  </filter>
  <filter id="puffy" x="-20%" y="-30%" width="140%" height="170%">
    <feDropShadow dx="0" dy="14" stdDeviation="12" flood-color="#00164f" flood-opacity=".5"/>
  </filter>
  <filter id="glow"><feGaussianBlur stdDeviation="10"/></filter>
</defs>
<rect x="20" y="20" width="1496" height="1496" rx="250" fill="url(#bg)"/>
<ellipse cx="1120" cy="220" rx="360" ry="250" fill="#1d8cff" opacity=".22" filter="url(#glow)"/>
<g filter="url(#soft)">
  <path d="M485 535V420Q485 390 515 375L560 350Q590 338 590 370V520" fill="url(#bar)"/>
  <path d="M685 500V330Q685 300 715 285L760 260Q790 248 790 280V475" fill="url(#bar)"/>
  <path d="M885 450V240Q885 210 915 195L960 170Q990 158 990 190V420" fill="url(#bar)"/>
  <path d="M470 535 C635 535 780 500 895 420 C1005 343 1068 250 1108 175" fill="none" stroke="#22c9ef" stroke-width="58" stroke-linecap="round"/>
  <path d="M1070 145 L1168 105 L1158 215 Z" fill="#22c9ef"/>
</g>
<g filter="url(#puffy)">
  <text x="768" y="855" text-anchor="middle" direction="rtl" unicode-bidi="bidi-override"
    font-family="Vazirmatn,Noto Sans Arabic,Tahoma,sans-serif" font-size="245" font-weight="900"
    letter-spacing="-5" fill="url(#whiteGel)" stroke="#ffffff" stroke-width="10" paint-order="stroke">سای سای</text>
</g>
<path d="M125 935 C245 1085 535 1118 820 1098 C1080 1080 1270 1018 1390 890" fill="none" stroke="url(#cyan)" stroke-width="52" stroke-linecap="round" filter="url(#soft)"/>
<text x="768" y="1165" text-anchor="middle" direction="rtl" unicode-bidi="bidi-override"
  font-family="Vazirmatn,Noto Sans Arabic,Tahoma,sans-serif" font-size="78" font-weight="800"
  fill="#dff8ff">نرم افزار حسابداری و مدیریت مالی</text>
</svg>