<svg xmlns="http://www.w3.org/2000/svg" width="1024" height="1024" viewBox="0 0 1024 1024">
<defs>
 <linearGradient id="bg" x1="0" y1="0" x2="1" y2="1"><stop offset="0" stop-color="#279dff"/><stop offset=".48" stop-color="#0756e8"/><stop offset="1" stop-color="#0738bb"/></linearGradient>
 <linearGradient id="bar" x1="0" y1="1" x2="0" y2="0"><stop offset="0" stop-color="#13bfff"/><stop offset="1" stop-color="#35edbd"/></linearGradient>
 <linearGradient id="white" x1="0" y1="0" x2="0" y2="1"><stop offset="0" stop-color="#fff"/><stop offset="1" stop-color="#dceaff"/></linearGradient>
 <filter id="shadow" x="-30%" y="-30%" width="160%" height="170%"><feDropShadow dx="0" dy="10" stdDeviation="12" flood-color="#002b86" flood-opacity=".35"/></filter>
</defs>
<rect width="1024" height="1024" rx="190" fill="url(#bg)"/>
<ellipse cx="250" cy="190" rx="300" ry="250" fill="#56c5ff" opacity=".12"/>
<g filter="url(#shadow)">
 <rect x="365" y="505" width="55" height="130" rx="20" fill="url(#bar)"/>
 <rect x="435" y="475" width="58" height="160" rx="21" fill="url(#bar)"/>
 <rect x="510" y="435" width="62" height="200" rx="22" fill="url(#bar)"/>
 <path d="M275 290 C300 220 390 190 500 205 C570 214 624 235 678 267 L651 322 C598 292 548 276 492 270 C420 263 367 280 360 315 C350 360 430 374 512 394 C620 420 700 456 707 530 C715 615 615 680 485 691 C380 700 290 664 245 610 L290 565 C334 610 398 632 480 625 C572 618 635 583 630 540 C625 501 565 480 477 460 C363 434 263 395 275 290Z" fill="url(#white)"/>
 <path d="M295 592 C370 656 464 669 547 636 C598 616 637 580 664 536" fill="none" stroke="#fff" stroke-width="24" stroke-linecap="round"/>
 <path d="M635 531 L684 501 L679 560Z" fill="#fff"/>
</g>
<text x="512" y="820" text-anchor="middle" direction="rtl" unicode-bidi="plaintext" font-family="Vazirmatn,Noto Sans Arabic,Tahoma,sans-serif" font-size="106" font-weight="900" fill="#fff">سای‌سای</text>
</svg>