<svg xmlns="http://www.w3.org/2000/svg" width="1536" height="1536" viewBox="0 0 1536 1536">
<defs>
 <linearGradient id="blue" x1="0" y1="0" x2="1" y2="1"><stop stop-color="#39aaff"/><stop offset=".48" stop-color="#0860f2"/><stop offset="1" stop-color="#0039c8"/></linearGradient>
 <linearGradient id="s" x1=".2" y1="0" x2=".8" y2="1"><stop stop-color="#fff"/><stop offset=".55" stop-color="#f5faff"/><stop offset="1" stop-color="#d5eaff"/></linearGradient>
 <linearGradient id="bar" x1="0" y1="1" x2="0" y2="0"><stop stop-color="#13c5ff"/><stop offset="1" stop-color="#38edb8"/></linearGradient>
 <filter id="shade" x="-20%" y="-20%" width="140%" height="150%"><feDropShadow dx="0" dy="18" stdDeviation="18" flood-color="#001b66" flood-opacity=".3"/></filter>
</defs>
<rect width="1536" height="1536" rx="270" fill="url(#blue)"/>
<ellipse cx="360" cy="190" rx="420" ry="300" fill="#9be1ff" opacity=".12"/>
<g filter="url(#shade)">
 <path d="M1050 250 C960 195 815 170 660 192 C465 220 340 342 340 490 C340 626 455 701 645 748 C815 790 900 831 901 916 C902 1010 788 1068 644 1058 C516 1049 425 1005 354 936 L267 1034 C366 1140 503 1194 664 1190 C895 1184 1068 1066 1067 894 C1066 743 951 658 758 607 C602 566 511 530 511 470 C511 404 586 362 688 351 C796 339 887 359 970 405Z" fill="url(#s)"/>
 <path d="M315 1006 C395 1094 511 1130 646 1126 C800 1122 926 1044 979 938" fill="none" stroke="#4bdfff" stroke-width="20" stroke-linecap="round"/>
 <path d="M943 948 L1008 874 L1018 973Z" fill="#fff"/>
 <rect x="535" y="764" width="92" height="245" rx="30" fill="url(#bar)"/>
 <rect x="650" y="696" width="92" height="313" rx="30" fill="url(#bar)"/>
 <rect x="765" y="620" width="92" height="389" rx="30" fill="url(#bar)"/>
</g>
<text x="768" y="1280" text-anchor="middle" direction="rtl" unicode-bidi="plaintext" font-family="Vazirmatn,Noto Sans Arabic,Tahoma,sans-serif" font-size="174" font-weight="900" fill="#fff">سای‌سای</text>
</svg>